<svg xmlns="http://www.w3.org/2000/svg" width="150" height="150" fill="none"><path fill="#DD1C4B" d="M76.038 62.313c-19.37-19.367-40.609-29.53-47.441-22.7a6.8 6.8 0 0 0-1.61 2.778l-.11-.11-6.525 26.74-6.497 26.66-7.702 31.567-4.876 19.992 28.867-10.923 36.715-13.892 29.291-11.083-.035-.035a6.8 6.8 0 0 0 2.624-1.552c6.833-6.833-3.33-28.072-22.7-47.442"/><path fill="#D1E3EE" d="M76.039 62.305c-19.37-19.369-40.61-29.533-47.44-22.701-6.832 6.831 3.332 28.07 22.701 47.44 19.37 19.369 40.61 29.533 47.44 22.702 6.832-6.832-3.332-28.071-22.701-47.44"/><path fill="#B21D48" d="M93.491 112.206a24.5 24.5 0 0 1-10.176-2.019l-23.94 9.059-36.729 13.88-19.694 7.452-1.675 6.865 28.867-10.924 36.715-13.892 26.882-10.171z"/><path fill="#FFBF41" d="M123.729 92.464c-.299-.001-.596-.055-.877-.158a77.24 77.24 0 0 0-39.764-3.863L74.16 89.93A2.5 2.5 0 0 1 73.336 85l8.93-1.499a82.3 82.3 0 0 1 42.34 4.111 2.499 2.499 0 0 1-.877 4.85M78.75 77.47a2.5 2.5 0 0 1-1.075-4.748l52.48-24.99a2.5 2.5 0 1 1 2.149 4.512l-52.48 24.99a2.5 2.5 0 0 1-1.074.236M49.525 72.472a2.499 2.499 0 0 1-2.304-3.46v-.002l3.633-8.719a69.9 69.9 0 0 0 3.731-42.256 2.5 2.5 0 1 1 4.878-1.084 74.87 74.87 0 0 1-3.998 45.265l-3.636 8.719a2.5 2.5 0 0 1-2.304 1.537"/><path fill="#D5557E" d="M136.225 102.46a4.998 4.998 0 1 0 0-9.997 4.998 4.998 0 0 0 0 9.997"/><path fill="#DD95C1" d="M76.248 32.487a4.998 4.998 0 1 0 0-9.996 4.998 4.998 0 0 0 0 9.996"/><path fill="#7FCCCB" d="M53.76 9.996a4.998 4.998 0 1 1 0-9.996 4.998 4.998 0 0 1 0 9.996"/><path fill="#2276BB" d="M123.729 19.992a2.5 2.5 0 0 1-2.499-2.499v-2.499a2.5 2.5 0 0 1 4.999 0v2.5a2.5 2.5 0 0 1-2.5 2.498M123.729 7.497a2.5 2.5 0 0 1-2.499-2.499V2.499a2.5 2.5 0 0 1 4.999 0v2.499a2.5 2.5 0 0 1-2.5 2.5M131.229 12.495h-2.5a2.5 2.5 0 0 1 0-4.998h2.5a2.5 2.5 0 0 1 0 4.998M118.732 12.495h-2.499a2.5 2.5 0 0 1 0-4.998h2.499a2.499 2.499 0 1 1 0 4.998"/><path fill="#fff" d="M21.115 72.472c-.28-1.07-.53-2.15-.762-3.249l-6.498 26.66.5 6.095a56.1 56.1 0 0 0 15.787 34.529l36.718-13.88c-.2-.062-.407-.107-.607-.175a73.27 73.27 0 0 1-45.138-49.98"/><path fill="#F6F6E7" d="M66.862 122.627c-.2-.062-.408-.107-.608-.175a73 73 0 0 1-7.057-3.106l-33.072 12.513a56 56 0 0 0 4.02 4.661z"/><path fill="#C9DA53" d="M106.239 29.936v12.548H93.691V29.936z"/><path fill="#FFBF41" d="M61.256 74.971a2.5 2.5 0 0 1-1.672-4.356l24.99-22.491a2.499 2.499 0 0 1 3.344 3.713L62.928 74.33a2.5 2.5 0 0 1-1.672.642"/><path fill="#FFDB43" d="M133.726 64.975a2.5 2.5 0 0 1-2.499-2.5v-2.498a2.5 2.5 0 0 1 4.998 0v2.499a2.5 2.5 0 0 1-2.499 2.499M142.563 61.314a2.48 2.48 0 0 1-1.767-.733l-1.766-1.766a2.499 2.499 0 0 1 3.533-3.534l1.767 1.767a2.498 2.498 0 0 1-1.767 4.266M146.221 52.48h-2.499a2.5 2.5 0 0 1 0-4.999h2.499a2.5 2.5 0 0 1 0 4.999M140.795 45.413a2.499 2.499 0 0 1-1.767-4.266l1.767-1.767a2.5 2.5 0 0 1 3.534 3.533l-1.767 1.767a2.5 2.5 0 0 1-1.767.733M133.726 42.483a2.5 2.5 0 0 1-2.499-2.499v-2.499a2.5 2.5 0 0 1 4.998 0v2.5a2.5 2.5 0 0 1-2.499 2.498M126.657 45.412a2.5 2.5 0 0 1-1.767-.732l-1.767-1.767a2.5 2.5 0 0 1 3.534-3.533l1.767 1.767a2.499 2.499 0 0 1-1.767 4.265M13.773 2.499l3.86 7.824 8.635 1.255-6.248 6.09 1.474 8.6-7.721-4.062-7.723 4.061 1.475-8.599-6.248-6.09 8.634-1.255z"/><path fill="#2BB3CE" d="M147.93 135.362a17.35 17.35 0 0 0-7.662-10.098l-1.03-1.545a37.71 37.71 0 0 0-25.093-16.226 2.5 2.5 0 0 0-.824 4.928 32.7 32.7 0 0 1 19.07 10.631 14.74 14.74 0 0 0-9.996 6.865c-2.692 4.82-.966 10.909 3.854 13.601 4.821 2.691 10.91.965 13.601-3.855a14.5 14.5 0 0 0 1.622-6.415 12.21 12.21 0 0 1 .547 12.978 2.499 2.499 0 1 0 4.364 2.434 17.39 17.39 0 0 0 1.547-13.298m-12.438 1.862a4.998 4.998 0 1 1-8.752-4.83l.023-.041a9.37 9.37 0 0 1 6.767-4.403c.435-.012.865.088 1.25.29 2.109 1.177 2.221 6.28.712 8.984"/></svg>